<svg xmlns="http://www.w3.org/2000/svg" viewBox="0 0 256 256">
<defs>
<linearGradient id="g" x1="0" x2="1" y1="0" y2="1">
<stop offset="0" stop-color="#1e3a8a"/>
<stop offset="1" stop-color="#0ea5e9"/>
</linearGradient>
</defs>
<rect width="256" height="256" rx="56" fill="url(#g)"/>
<g fill="#fff">
<path d="M86 94c-16 0-30 13-30 29 0 9 4 17 10 23-8 4-14 12-14 22 0 14 12 26 28 26 17 0 30-11 30-28 0-34-12-72-24-72z"/>
<path d="M160 94c-16 0-30 13-30 29 0 9 4 17 10 23-8 4-14 12-14 22 0 14 12 26 28 26 17 0 30-11 30-28 0-34-12-72-24-72z"/>
</g>
<g fill="#0ea5e9" font-family="Inter, system-ui, sans-serif" font-weight="700" font-size="52">
<text x="88" y="142" text-anchor="middle" dominant-baseline="middle">R</text>
<text x="162" y="142" text-anchor="middle" dominant-baseline="middle">C</text>
</g>
<g fill="#ffffff" font-family="Inter, system-ui, sans-serif" font-weight="700" font-size="28">
<text x="128" y="210" text-anchor="middle" dominant-baseline="middle">maker</text>
</g>
</svg>